<svg viewBox="0 0 100 120" xmlns="http://www.w3.org/2000/svg">
  <path d="M45 15 
           C45 7, 52 0, 60 0 
           C68 0, 75 7, 75 15 
           C75 23, 68 30, 60 30 
           C52 30, 45 23, 45 15 
           Z
           
           M35 25
           C30 25, 25 28, 22 32
           C20 35, 20 38, 22 40
           C24 42, 26 42, 28 40
           L30 38
           L35 35
           L40 33
           L45 32
           L50 31
           L55 30
           L60 29
           L65 28
           L70 27
           L75 26
           L80 24
           L85 22
           L90 19
           L95 16
           L100 12
           L98 10
           L93 14
           L88 17
           L83 20
           L78 22
           L73 24
           L68 25
           L63 26
           L58 27
           L53 28
           L48 30
           L43 32
           L38 35
           L33 38
           L30 42
           L28 46
           L26 50
           L24 54
           L22 58
           L20 62
           L18 66
           L16 70
           L14 74
           L12 78
           L10 82
           L8 86
           L6 90
           L4 94
           L2 98
           L0 102
           L0 120
           L5 115
           L10 110
           L15 105
           L20 100
           L25 95
           L30 90
           L35 85
           L40 80
           L45 75
           L50 70
           L55 65
           L58 62
           L60 60
           L62 58
           L64 56
           L66 54
           L68 52
           L70 50
           L72 48
           L74 46
           L76 44
           L78 42
           L80 40
           L82 38
           L84 36
           L86 34
           L88 32
           L90 30
           L85 32
           L80 34
           L75 36
           L70 38
           L65 40
           L60 42
           L55 44
           L50 46
           L45 48
           L40 50
           L35 52
           L32 54
           L30 56
           L28 58
           L26 60
           L25 62
           L24 64
           L23 66
           L22 68
           L21 70
           L20 72
           L19 74
           L18 76
           L17 78
           L16 80
           L15 82
           L14 84
           L13 86
           L12 88
           L11 90
           L10 92
           L12 90
           L14 88
           L16 86
           L18 84
           L20 82
           L22 80
           L24 78
           L26 76
           L28 74
           L30 72
           L32 70
           L34 68
           L36 66
           L38 64
           L40 62
           L42 60
           L44 58
           L46 56
           L48 54
           L50 52
           L52 50
           L54 48
           L56 46
           L58 44
           L60 42
           L55 45
           L50 48
           L45 52
           L40 56
           L35 60
           L32 64
           L30 68
           L29 72
           L28 76
           L27 80
           L26 84
           L25 88
           L24 92
           L23 96
           L22 100
           L21 104
           L20 108
           L19 112
           L18 116
           L17 120
           L22 115
           L27 110
           L32 105
           L37 100
           L42 95
           L47 90
           L52 85
           L57 80
           L62 75
           L67 70
           L70 67
           L72 65
           L74 63
           L76 61
           L78 59
           L80 57
           L82 55
           L84 53
           L86 51
           L88 49
           L90 47
           L85 49
           L80 51
           L75 53
           L70 55
           L65 57
           L60 59
           L55 61
           L50 63
           L45 65
           L40 67
           L35 69
           Z" 
        fill="currentColor"/>
</svg>
